<?xml version="1.0" encoding="UTF-8" standalone="no"?>
<!DOCTYPE svg PUBLIC "-//W3C//DTD SVG 1.1//EN"
 "http://www.w3.org/Graphics/SVG/1.1/DTD/svg11.dtd">
<!-- Generated by graphviz version 2.40.1 (20161225.0304)
 -->
<!-- Title: dependencies Pages: 1 -->
<svg width="1080pt" height="284pt"
 viewBox="0.00 0.00 1080.00 284.00" xmlns="http://www.w3.org/2000/svg" xmlns:xlink="http://www.w3.org/1999/xlink">
<g id="graph0" class="graph" transform="scale(1 1) rotate(0) translate(4 280)">
<title>dependencies</title>
<polygon fill="#ffffff" stroke="transparent" points="-4,4 -4,-280 1076,-280 1076,4 -4,4"/>
<text text-anchor="start" x="515.0091" y="-42.4" font-family="sans-serif" font-weight="bold" font-size="14.00" fill="#000000">Legend</text>
<polygon fill="#ffffb3" stroke="transparent" points="302,-10 302,-30 322,-30 322,-10 302,-10"/>
<text text-anchor="start" x="325.629" y="-15.4" font-family="sans-serif" font-size="14.00" fill="#000000"> &#160;Declarations</text>
<polygon fill="#8dd3c7" stroke="transparent" points="415,-10 415,-30 435,-30 435,-10 415,-10"/>
<text text-anchor="start" x="438.7251" y="-15.4" font-family="sans-serif" font-size="14.00" fill="#000000"> &#160;Module</text>
<polygon fill="#80b1d3" stroke="transparent" points="501,-10 501,-30 521,-30 521,-10 501,-10"/>
<text text-anchor="start" x="524.7812" y="-15.4" font-family="sans-serif" font-size="14.00" fill="#000000"> &#160;Bootstrap</text>
<polygon fill="#fdb462" stroke="transparent" points="598,-10 598,-30 618,-30 618,-10 598,-10"/>
<text text-anchor="start" x="621.6732" y="-15.4" font-family="sans-serif" font-size="14.00" fill="#000000"> &#160;Providers</text>
<polygon fill="#fb8072" stroke="transparent" points="694,-10 694,-30 714,-30 714,-10 694,-10"/>
<text text-anchor="start" x="717.7258" y="-15.4" font-family="sans-serif" font-size="14.00" fill="#000000"> &#160;Exports</text>
<g id="clust1" class="cluster">
<title>cluster_ChannelsModule</title>
<polygon fill="none" stroke="#000000" stroke-dasharray="1,5" points="8,-70 8,-268 1064,-268 1064,-70 8,-70"/>
</g>
<g id="clust3" class="cluster">
<title>cluster_ChannelsModule_imports</title>
<polygon fill="none" stroke="#000000" points="192,-78 192,-130 1056,-130 1056,-78 192,-78"/>
</g>
<g id="clust4" class="cluster">
<title>cluster_ChannelsModule_exports</title>
<polygon fill="none" stroke="#000000" points="483,-208 483,-260 613,-260 613,-208 483,-208"/>
</g>
<g id="clust6" class="cluster">
<title>cluster_ChannelsModule_providers</title>
<polygon fill="none" stroke="#000000" points="16,-78 16,-130 184,-130 184,-78 16,-78"/>
</g>
<!-- ContactsModule -->
<g id="node1" class="node">
<title>ContactsModule</title>
<polygon fill="#8dd3c7" stroke="#000000" points="1048.0424,-122 1045.0424,-126 1024.0424,-126 1021.0424,-122 939.9576,-122 939.9576,-86 1048.0424,-86 1048.0424,-122"/>
<text text-anchor="middle" x="994" y="-99.8" font-family="Times,serif" font-size="14.00" fill="#000000">ContactsModule</text>
</g>
<!-- ChannelsModule -->
<g id="node8" class="node">
<title>ChannelsModule</title>
<polygon fill="#8dd3c7" stroke="#000000" points="603.6513,-187 600.6513,-191 579.6513,-191 576.6513,-187 492.3487,-187 492.3487,-151 603.6513,-151 603.6513,-187"/>
<text text-anchor="middle" x="548" y="-164.8" font-family="Times,serif" font-size="14.00" fill="#000000">ChannelsModule</text>
</g>
<!-- ContactsModule&#45;&gt;ChannelsModule -->
<g id="edge1" class="edge">
<title>ContactsModule&#45;&gt;ChannelsModule</title>
<path fill="none" stroke="#000000" d="M994,-122.2921C994,-144.2057 994,-178 994,-178 994,-178 614.0346,-178 614.0346,-178"/>
<polygon fill="#000000" stroke="#000000" points="614.0346,-174.5001 604.0346,-178 614.0346,-181.5001 614.0346,-174.5001"/>
</g>
<!-- CryptographyModule -->
<g id="node2" class="node">
<title>CryptographyModule</title>
<polygon fill="#8dd3c7" stroke="#000000" points="921.8132,-122 918.8132,-126 897.8132,-126 894.8132,-122 784.1868,-122 784.1868,-86 921.8132,-86 921.8132,-122"/>
<text text-anchor="middle" x="853" y="-99.8" font-family="Times,serif" font-size="14.00" fill="#000000">CryptographyModule</text>
</g>
<!-- CryptographyModule&#45;&gt;ChannelsModule -->
<g id="edge2" class="edge">
<title>CryptographyModule&#45;&gt;ChannelsModule</title>
<path fill="none" stroke="#000000" d="M853,-122.1061C853,-141.3391 853,-169 853,-169 853,-169 613.9417,-169 613.9417,-169"/>
<polygon fill="#000000" stroke="#000000" points="613.9417,-165.5001 603.9417,-169 613.9417,-172.5001 613.9417,-165.5001"/>
</g>
<!-- EventsModule -->
<g id="node3" class="node">
<title>EventsModule</title>
<polygon fill="#8dd3c7" stroke="#000000" points="766.6528,-122 763.6528,-126 742.6528,-126 739.6528,-122 669.3472,-122 669.3472,-86 766.6528,-86 766.6528,-122"/>
<text text-anchor="middle" x="718" y="-99.8" font-family="Times,serif" font-size="14.00" fill="#000000">EventsModule</text>
</g>
<!-- EventsModule&#45;&gt;ChannelsModule -->
<g id="edge3" class="edge">
<title>EventsModule&#45;&gt;ChannelsModule</title>
<path fill="none" stroke="#000000" d="M718,-122.027C718,-138.3976 718,-160 718,-160 718,-160 613.6644,-160 613.6644,-160"/>
<polygon fill="#000000" stroke="#000000" points="613.6644,-156.5001 603.6644,-160 613.6643,-163.5001 613.6644,-156.5001"/>
</g>
<!-- IpfsModule -->
<g id="node4" class="node">
<title>IpfsModule</title>
<polygon fill="#8dd3c7" stroke="#000000" points="651.8162,-122 648.8162,-126 627.8162,-126 624.8162,-122 570.1838,-122 570.1838,-86 651.8162,-86 651.8162,-122"/>
<text text-anchor="middle" x="611" y="-99.8" font-family="Times,serif" font-size="14.00" fill="#000000">IpfsModule</text>
</g>
<!-- IpfsModule&#45;&gt;ChannelsModule -->
<g id="edge4" class="edge">
<title>IpfsModule&#45;&gt;ChannelsModule</title>
<path fill="none" stroke="#000000" d="M587.0838,-122.1061C587.0838,-122.1061 587.0838,-140.991 587.0838,-140.991"/>
<polygon fill="#000000" stroke="#000000" points="583.5839,-140.9909 587.0838,-150.991 590.5839,-140.991 583.5839,-140.9909"/>
</g>
<!-- KeyManagerModule -->
<g id="node5" class="node">
<title>KeyManagerModule</title>
<polygon fill="#8dd3c7" stroke="#000000" points="552.1205,-122 549.1205,-126 528.1205,-126 525.1205,-122 419.8795,-122 419.8795,-86 552.1205,-86 552.1205,-122"/>
<text text-anchor="middle" x="486" y="-99.8" font-family="Times,serif" font-size="14.00" fill="#000000">KeyManagerModule</text>
</g>
<!-- KeyManagerModule&#45;&gt;ChannelsModule -->
<g id="edge5" class="edge">
<title>KeyManagerModule&#45;&gt;ChannelsModule</title>
<path fill="none" stroke="#000000" d="M522.2423,-122.1061C522.2423,-122.1061 522.2423,-140.991 522.2423,-140.991"/>
<polygon fill="#000000" stroke="#000000" points="518.7424,-140.9909 522.2423,-150.991 525.7424,-140.991 518.7424,-140.9909"/>
</g>
<!-- UsersModule -->
<g id="node6" class="node">
<title>UsersModule</title>
<polygon fill="#8dd3c7" stroke="#000000" points="401.9218,-122 398.9218,-126 377.9218,-126 374.9218,-122 310.0782,-122 310.0782,-86 401.9218,-86 401.9218,-122"/>
<text text-anchor="middle" x="356" y="-99.8" font-family="Times,serif" font-size="14.00" fill="#000000">UsersModule</text>
</g>
<!-- UsersModule&#45;&gt;ChannelsModule -->
<g id="edge6" class="edge">
<title>UsersModule&#45;&gt;ChannelsModule</title>
<path fill="none" stroke="#000000" d="M356,-122.027C356,-138.3976 356,-160 356,-160 356,-160 482.2077,-160 482.2077,-160"/>
<polygon fill="#000000" stroke="#000000" points="482.2078,-163.5001 492.2077,-160 482.2077,-156.5001 482.2078,-163.5001"/>
</g>
<!-- Web3Module -->
<g id="node7" class="node">
<title>Web3Module</title>
<polygon fill="#8dd3c7" stroke="#000000" points="292.479,-122 289.479,-126 268.479,-126 265.479,-122 199.521,-122 199.521,-86 292.479,-86 292.479,-122"/>
<text text-anchor="middle" x="246" y="-99.8" font-family="Times,serif" font-size="14.00" fill="#000000">Web3Module</text>
</g>
<!-- Web3Module&#45;&gt;ChannelsModule -->
<g id="edge7" class="edge">
<title>Web3Module&#45;&gt;ChannelsModule</title>
<path fill="none" stroke="#000000" d="M246,-122.1061C246,-141.3391 246,-169 246,-169 246,-169 482.2566,-169 482.2566,-169"/>
<polygon fill="#000000" stroke="#000000" points="482.2566,-172.5001 492.2566,-169 482.2566,-165.5001 482.2566,-172.5001"/>
</g>
<!-- ChannelsService  -->
<g id="node9" class="node">
<title>ChannelsService </title>
<polygon fill="#fb8072" stroke="#000000" points="604.5794,-252 491.4206,-252 491.4206,-216 604.5794,-216 604.5794,-252"/>
<text text-anchor="middle" x="548" y="-229.8" font-family="Times,serif" font-size="14.00" fill="#000000">ChannelsService </text>
</g>
<!-- ChannelsModule&#45;&gt;ChannelsService  -->
<g id="edge8" class="edge">
<title>ChannelsModule&#45;&gt;ChannelsService </title>
<path fill="none" stroke="#000000" stroke-dasharray="5,2" d="M548,-187.1061C548,-187.1061 548,-205.991 548,-205.991"/>
<polygon fill="#000000" stroke="#000000" points="544.5001,-205.9909 548,-215.991 551.5001,-205.991 544.5001,-205.9909"/>
</g>
<!-- ChannelsService -->
<g id="node10" class="node">
<title>ChannelsService</title>
<ellipse fill="#fdb462" stroke="#000000" cx="100" cy="-104" rx="75.8605" ry="18"/>
<text text-anchor="middle" x="100" y="-99.8" font-family="Times,serif" font-size="14.00" fill="#000000">ChannelsService</text>
</g>
<!-- ChannelsService&#45;&gt;ChannelsModule -->
<g id="edge9" class="edge">
<title>ChannelsService&#45;&gt;ChannelsModule</title>
<path fill="none" stroke="#000000" d="M100,-122.2921C100,-144.2057 100,-178 100,-178 100,-178 482.1663,-178 482.1663,-178"/>
<polygon fill="#000000" stroke="#000000" points="482.1663,-181.5001 492.1663,-178 482.1663,-174.5001 482.1663,-181.5001"/>
</g>
</g>
</svg>
