<?xml version="1.0" encoding="UTF-8" standalone="no"?>
<!DOCTYPE svg PUBLIC "-//W3C//DTD SVG 1.1//EN"
 "http://www.w3.org/Graphics/SVG/1.1/DTD/svg11.dtd">
<!-- Generated by graphviz version 2.40.1 (20161225.0304)
 -->
<!-- Title: dependencies Pages: 1 -->
<svg width="626pt" height="284pt"
 viewBox="0.00 0.00 626.00 284.00" xmlns="http://www.w3.org/2000/svg" xmlns:xlink="http://www.w3.org/1999/xlink">
<g id="graph0" class="graph" transform="scale(1 1) rotate(0) translate(4 280)">
<title>dependencies</title>
<polygon fill="#ffffff" stroke="transparent" points="-4,4 -4,-280 622,-280 622,4 -4,4"/>
<text text-anchor="start" x="288.0091" y="-42.4" font-family="sans-serif" font-weight="bold" font-size="14.00" fill="#000000">Legend</text>
<polygon fill="#ffffb3" stroke="transparent" points="75,-10 75,-30 95,-30 95,-10 75,-10"/>
<text text-anchor="start" x="98.629" y="-15.4" font-family="sans-serif" font-size="14.00" fill="#000000"> &#160;Declarations</text>
<polygon fill="#8dd3c7" stroke="transparent" points="188,-10 188,-30 208,-30 208,-10 188,-10"/>
<text text-anchor="start" x="211.7251" y="-15.4" font-family="sans-serif" font-size="14.00" fill="#000000"> &#160;Module</text>
<polygon fill="#80b1d3" stroke="transparent" points="274,-10 274,-30 294,-30 294,-10 274,-10"/>
<text text-anchor="start" x="297.7812" y="-15.4" font-family="sans-serif" font-size="14.00" fill="#000000"> &#160;Bootstrap</text>
<polygon fill="#fdb462" stroke="transparent" points="371,-10 371,-30 391,-30 391,-10 371,-10"/>
<text text-anchor="start" x="394.6732" y="-15.4" font-family="sans-serif" font-size="14.00" fill="#000000"> &#160;Providers</text>
<polygon fill="#fb8072" stroke="transparent" points="467,-10 467,-30 487,-30 487,-10 467,-10"/>
<text text-anchor="start" x="490.7258" y="-15.4" font-family="sans-serif" font-size="14.00" fill="#000000"> &#160;Exports</text>
<g id="clust1" class="cluster">
<title>cluster_ContactsModule</title>
<polygon fill="none" stroke="#000000" stroke-dasharray="1,5" points="8,-70 8,-268 610,-268 610,-70 8,-70"/>
</g>
<g id="clust3" class="cluster">
<title>cluster_ContactsModule_imports</title>
<polygon fill="none" stroke="#000000" points="188,-78 188,-130 602,-130 602,-78 188,-78"/>
</g>
<g id="clust4" class="cluster">
<title>cluster_ContactsModule_exports</title>
<polygon fill="none" stroke="#000000" points="244,-208 244,-260 370,-260 370,-208 244,-208"/>
</g>
<g id="clust6" class="cluster">
<title>cluster_ContactsModule_providers</title>
<polygon fill="none" stroke="#000000" points="16,-78 16,-130 180,-130 180,-78 16,-78"/>
</g>
<!-- CryptographyModule -->
<g id="node1" class="node">
<title>CryptographyModule</title>
<polygon fill="#8dd3c7" stroke="#000000" points="593.8132,-122 590.8132,-126 569.8132,-126 566.8132,-122 456.1868,-122 456.1868,-86 593.8132,-86 593.8132,-122"/>
<text text-anchor="middle" x="525" y="-99.8" font-family="Times,serif" font-size="14.00" fill="#000000">CryptographyModule</text>
</g>
<!-- ContactsModule -->
<g id="node4" class="node">
<title>ContactsModule</title>
<polygon fill="#8dd3c7" stroke="#000000" points="361.0424,-187 358.0424,-191 337.0424,-191 334.0424,-187 252.9576,-187 252.9576,-151 361.0424,-151 361.0424,-187"/>
<text text-anchor="middle" x="307" y="-164.8" font-family="Times,serif" font-size="14.00" fill="#000000">ContactsModule</text>
</g>
<!-- CryptographyModule&#45;&gt;ContactsModule -->
<g id="edge1" class="edge">
<title>CryptographyModule&#45;&gt;ContactsModule</title>
<path fill="none" stroke="#000000" d="M525,-122.1061C525,-141.3391 525,-169 525,-169 525,-169 371.1677,-169 371.1677,-169"/>
<polygon fill="#000000" stroke="#000000" points="371.1678,-165.5001 361.1677,-169 371.1677,-172.5001 371.1678,-165.5001"/>
</g>
<!-- KeyManagerModule -->
<g id="node2" class="node">
<title>KeyManagerModule</title>
<polygon fill="#8dd3c7" stroke="#000000" points="438.1205,-122 435.1205,-126 414.1205,-126 411.1205,-122 305.8795,-122 305.8795,-86 438.1205,-86 438.1205,-122"/>
<text text-anchor="middle" x="372" y="-99.8" font-family="Times,serif" font-size="14.00" fill="#000000">KeyManagerModule</text>
</g>
<!-- KeyManagerModule&#45;&gt;ContactsModule -->
<g id="edge2" class="edge">
<title>KeyManagerModule&#45;&gt;ContactsModule</title>
<path fill="none" stroke="#000000" d="M333.4804,-122.1061C333.4804,-122.1061 333.4804,-140.991 333.4804,-140.991"/>
<polygon fill="#000000" stroke="#000000" points="329.9804,-140.9909 333.4804,-150.991 336.9804,-140.991 329.9804,-140.9909"/>
</g>
<!-- UsersModule -->
<g id="node3" class="node">
<title>UsersModule</title>
<polygon fill="#8dd3c7" stroke="#000000" points="287.9218,-122 284.9218,-126 263.9218,-126 260.9218,-122 196.0782,-122 196.0782,-86 287.9218,-86 287.9218,-122"/>
<text text-anchor="middle" x="242" y="-99.8" font-family="Times,serif" font-size="14.00" fill="#000000">UsersModule</text>
</g>
<!-- UsersModule&#45;&gt;ContactsModule -->
<g id="edge3" class="edge">
<title>UsersModule&#45;&gt;ContactsModule</title>
<path fill="none" stroke="#000000" d="M270.2199,-122.1061C270.2199,-122.1061 270.2199,-140.991 270.2199,-140.991"/>
<polygon fill="#000000" stroke="#000000" points="266.7199,-140.9909 270.2199,-150.991 273.7199,-140.991 266.7199,-140.9909"/>
</g>
<!-- ContactsService  -->
<g id="node5" class="node">
<title>ContactsService </title>
<polygon fill="#fb8072" stroke="#000000" points="362.4702,-252 251.5298,-252 251.5298,-216 362.4702,-216 362.4702,-252"/>
<text text-anchor="middle" x="307" y="-229.8" font-family="Times,serif" font-size="14.00" fill="#000000">ContactsService </text>
</g>
<!-- ContactsModule&#45;&gt;ContactsService  -->
<g id="edge4" class="edge">
<title>ContactsModule&#45;&gt;ContactsService </title>
<path fill="none" stroke="#000000" stroke-dasharray="5,2" d="M307,-187.1061C307,-187.1061 307,-205.991 307,-205.991"/>
<polygon fill="#000000" stroke="#000000" points="303.5001,-205.9909 307,-215.991 310.5001,-205.991 303.5001,-205.9909"/>
</g>
<!-- ContactsService -->
<g id="node6" class="node">
<title>ContactsService</title>
<ellipse fill="#fdb462" stroke="#000000" cx="98" cy="-104" rx="73.5714" ry="18"/>
<text text-anchor="middle" x="98" y="-99.8" font-family="Times,serif" font-size="14.00" fill="#000000">ContactsService</text>
</g>
<!-- ContactsService&#45;&gt;ContactsModule -->
<g id="edge5" class="edge">
<title>ContactsService&#45;&gt;ContactsModule</title>
<path fill="none" stroke="#000000" d="M98,-122.1061C98,-141.3391 98,-169 98,-169 98,-169 242.9055,-169 242.9055,-169"/>
<polygon fill="#000000" stroke="#000000" points="242.9055,-172.5001 252.9055,-169 242.9055,-165.5001 242.9055,-172.5001"/>
</g>
</g>
</svg>
