<?xml version="1.0" encoding="UTF-8" standalone="no"?>
<!DOCTYPE svg PUBLIC "-//W3C//DTD SVG 1.1//EN"
 "http://www.w3.org/Graphics/SVG/1.1/DTD/svg11.dtd">
<!-- Generated by graphviz version 2.40.1 (20161225.0304)
 -->
<!-- Title: dependencies Pages: 1 -->
<svg width="543pt" height="284pt"
 viewBox="0.00 0.00 543.00 284.00" xmlns="http://www.w3.org/2000/svg" xmlns:xlink="http://www.w3.org/1999/xlink">
<g id="graph0" class="graph" transform="scale(1 1) rotate(0) translate(4 280)">
<title>dependencies</title>
<polygon fill="#ffffff" stroke="transparent" points="-4,4 -4,-280 539,-280 539,4 -4,4"/>
<text text-anchor="start" x="246.5091" y="-42.4" font-family="sans-serif" font-weight="bold" font-size="14.00" fill="#000000">Legend</text>
<polygon fill="#ffffb3" stroke="transparent" points="33.5,-10 33.5,-30 53.5,-30 53.5,-10 33.5,-10"/>
<text text-anchor="start" x="57.129" y="-15.4" font-family="sans-serif" font-size="14.00" fill="#000000"> &#160;Declarations</text>
<polygon fill="#8dd3c7" stroke="transparent" points="146.5,-10 146.5,-30 166.5,-30 166.5,-10 146.5,-10"/>
<text text-anchor="start" x="170.2251" y="-15.4" font-family="sans-serif" font-size="14.00" fill="#000000"> &#160;Module</text>
<polygon fill="#80b1d3" stroke="transparent" points="232.5,-10 232.5,-30 252.5,-30 252.5,-10 232.5,-10"/>
<text text-anchor="start" x="256.2812" y="-15.4" font-family="sans-serif" font-size="14.00" fill="#000000"> &#160;Bootstrap</text>
<polygon fill="#fdb462" stroke="transparent" points="329.5,-10 329.5,-30 349.5,-30 349.5,-10 329.5,-10"/>
<text text-anchor="start" x="353.1732" y="-15.4" font-family="sans-serif" font-size="14.00" fill="#000000"> &#160;Providers</text>
<polygon fill="#fb8072" stroke="transparent" points="425.5,-10 425.5,-30 445.5,-30 445.5,-10 425.5,-10"/>
<text text-anchor="start" x="449.2258" y="-15.4" font-family="sans-serif" font-size="14.00" fill="#000000"> &#160;Exports</text>
<g id="clust1" class="cluster">
<title>cluster_MessagesModule</title>
<polygon fill="none" stroke="#000000" stroke-dasharray="1,5" points="8,-70 8,-268 527,-268 527,-70 8,-70"/>
</g>
<g id="clust3" class="cluster">
<title>cluster_MessagesModule_imports</title>
<polygon fill="none" stroke="#000000" points="196,-78 196,-130 519,-130 519,-78 196,-78"/>
</g>
<g id="clust4" class="cluster">
<title>cluster_MessagesModule_exports</title>
<polygon fill="none" stroke="#000000" points="236,-208 236,-260 368,-260 368,-208 236,-208"/>
</g>
<g id="clust6" class="cluster">
<title>cluster_MessagesModule_providers</title>
<polygon fill="none" stroke="#000000" points="16,-78 16,-130 188,-130 188,-78 16,-78"/>
</g>
<!-- EventsModule -->
<g id="node1" class="node">
<title>EventsModule</title>
<polygon fill="#8dd3c7" stroke="#000000" points="510.6528,-122 507.6528,-126 486.6528,-126 483.6528,-122 413.3472,-122 413.3472,-86 510.6528,-86 510.6528,-122"/>
<text text-anchor="middle" x="462" y="-99.8" font-family="Times,serif" font-size="14.00" fill="#000000">EventsModule</text>
</g>
<!-- MessagesModule -->
<g id="node4" class="node">
<title>MessagesModule</title>
<polygon fill="#8dd3c7" stroke="#000000" points="358.972,-187 355.972,-191 334.972,-191 331.972,-187 245.028,-187 245.028,-151 358.972,-151 358.972,-187"/>
<text text-anchor="middle" x="302" y="-164.8" font-family="Times,serif" font-size="14.00" fill="#000000">MessagesModule</text>
</g>
<!-- EventsModule&#45;&gt;MessagesModule -->
<g id="edge1" class="edge">
<title>EventsModule&#45;&gt;MessagesModule</title>
<path fill="none" stroke="#000000" d="M462,-122.1061C462,-141.3391 462,-169 462,-169 462,-169 369.3117,-169 369.3117,-169"/>
<polygon fill="#000000" stroke="#000000" points="369.3118,-165.5001 359.3117,-169 369.3117,-172.5001 369.3118,-165.5001"/>
</g>
<!-- IpfsModule -->
<g id="node2" class="node">
<title>IpfsModule</title>
<polygon fill="#8dd3c7" stroke="#000000" points="395.8162,-122 392.8162,-126 371.8162,-126 368.8162,-122 314.1838,-122 314.1838,-86 395.8162,-86 395.8162,-122"/>
<text text-anchor="middle" x="355" y="-99.8" font-family="Times,serif" font-size="14.00" fill="#000000">IpfsModule</text>
</g>
<!-- IpfsModule&#45;&gt;MessagesModule -->
<g id="edge2" class="edge">
<title>IpfsModule&#45;&gt;MessagesModule</title>
<path fill="none" stroke="#000000" d="M336.6641,-122.1061C336.6641,-122.1061 336.6641,-140.991 336.6641,-140.991"/>
<polygon fill="#000000" stroke="#000000" points="333.1642,-140.9909 336.6641,-150.991 340.1642,-140.991 333.1642,-140.9909"/>
</g>
<!-- Web3Module -->
<g id="node3" class="node">
<title>Web3Module</title>
<polygon fill="#8dd3c7" stroke="#000000" points="296.479,-122 293.479,-126 272.479,-126 269.479,-122 203.521,-122 203.521,-86 296.479,-86 296.479,-122"/>
<text text-anchor="middle" x="250" y="-99.8" font-family="Times,serif" font-size="14.00" fill="#000000">Web3Module</text>
</g>
<!-- Web3Module&#45;&gt;MessagesModule -->
<g id="edge3" class="edge">
<title>Web3Module&#45;&gt;MessagesModule</title>
<path fill="none" stroke="#000000" d="M270.7518,-122.1061C270.7518,-122.1061 270.7518,-140.991 270.7518,-140.991"/>
<polygon fill="#000000" stroke="#000000" points="267.2518,-140.9909 270.7518,-150.991 274.2518,-140.991 267.2518,-140.9909"/>
</g>
<!-- MessagesService  -->
<g id="node5" class="node">
<title>MessagesService </title>
<polygon fill="#fb8072" stroke="#000000" points="359.8998,-252 244.1002,-252 244.1002,-216 359.8998,-216 359.8998,-252"/>
<text text-anchor="middle" x="302" y="-229.8" font-family="Times,serif" font-size="14.00" fill="#000000">MessagesService </text>
</g>
<!-- MessagesModule&#45;&gt;MessagesService  -->
<g id="edge4" class="edge">
<title>MessagesModule&#45;&gt;MessagesService </title>
<path fill="none" stroke="#000000" stroke-dasharray="5,2" d="M302,-187.1061C302,-187.1061 302,-205.991 302,-205.991"/>
<polygon fill="#000000" stroke="#000000" points="298.5001,-205.9909 302,-215.991 305.5001,-205.991 298.5001,-205.9909"/>
</g>
<!-- MessagesService -->
<g id="node6" class="node">
<title>MessagesService</title>
<ellipse fill="#fdb462" stroke="#000000" cx="102" cy="-104" rx="77.5627" ry="18"/>
<text text-anchor="middle" x="102" y="-99.8" font-family="Times,serif" font-size="14.00" fill="#000000">MessagesService</text>
</g>
<!-- MessagesService&#45;&gt;MessagesModule -->
<g id="edge5" class="edge">
<title>MessagesService&#45;&gt;MessagesModule</title>
<path fill="none" stroke="#000000" d="M102,-122.1061C102,-141.3391 102,-169 102,-169 102,-169 234.9557,-169 234.9557,-169"/>
<polygon fill="#000000" stroke="#000000" points="234.9557,-172.5001 244.9557,-169 234.9556,-165.5001 234.9557,-172.5001"/>
</g>
</g>
</svg>
