<?xml version="1.0" encoding="UTF-8" standalone="no"?>
<!DOCTYPE svg PUBLIC "-//W3C//DTD SVG 1.1//EN"
 "http://www.w3.org/Graphics/SVG/1.1/DTD/svg11.dtd">
<!-- Generated by graphviz version 2.40.1 (20161225.0304)
 -->
<!-- Title: dependencies Pages: 1 -->
<svg width="840pt" height="211pt"
 viewBox="0.00 0.00 840.00 211.00" xmlns="http://www.w3.org/2000/svg" xmlns:xlink="http://www.w3.org/1999/xlink">
<g id="graph0" class="graph" transform="scale(1 1) rotate(0) translate(4 207)">
<title>dependencies</title>
<polygon fill="#ffffff" stroke="transparent" points="-4,4 -4,-207 836,-207 836,4 -4,4"/>
<text text-anchor="start" x="395.0091" y="-42.4" font-family="sans-serif" font-weight="bold" font-size="14.00" fill="#000000">Legend</text>
<polygon fill="#ffffb3" stroke="transparent" points="182,-10 182,-30 202,-30 202,-10 182,-10"/>
<text text-anchor="start" x="205.629" y="-15.4" font-family="sans-serif" font-size="14.00" fill="#000000"> &#160;Declarations</text>
<polygon fill="#8dd3c7" stroke="transparent" points="295,-10 295,-30 315,-30 315,-10 295,-10"/>
<text text-anchor="start" x="318.7251" y="-15.4" font-family="sans-serif" font-size="14.00" fill="#000000"> &#160;Module</text>
<polygon fill="#80b1d3" stroke="transparent" points="381,-10 381,-30 401,-30 401,-10 381,-10"/>
<text text-anchor="start" x="404.7812" y="-15.4" font-family="sans-serif" font-size="14.00" fill="#000000"> &#160;Bootstrap</text>
<polygon fill="#fdb462" stroke="transparent" points="478,-10 478,-30 498,-30 498,-10 478,-10"/>
<text text-anchor="start" x="501.6732" y="-15.4" font-family="sans-serif" font-size="14.00" fill="#000000"> &#160;Providers</text>
<polygon fill="#fb8072" stroke="transparent" points="574,-10 574,-30 594,-30 594,-10 574,-10"/>
<text text-anchor="start" x="597.7258" y="-15.4" font-family="sans-serif" font-size="14.00" fill="#000000"> &#160;Exports</text>
<g id="clust1" class="cluster">
<title>cluster_AppModule</title>
<polygon fill="none" stroke="#000000" stroke-dasharray="1,5" points="8,-70 8,-195 824,-195 824,-70 8,-70"/>
</g>
<g id="clust3" class="cluster">
<title>cluster_AppModule_imports</title>
<polygon fill="none" stroke="#000000" points="16,-78 16,-130 816,-130 816,-78 16,-78"/>
</g>
<!-- ChannelsModule -->
<g id="node1" class="node">
<title>ChannelsModule</title>
<polygon fill="#8dd3c7" stroke="#000000" points="807.6513,-122 804.6513,-126 783.6513,-126 780.6513,-122 696.3487,-122 696.3487,-86 807.6513,-86 807.6513,-122"/>
<text text-anchor="middle" x="752" y="-99.8" font-family="Times,serif" font-size="14.00" fill="#000000">ChannelsModule</text>
</g>
<!-- AppModule -->
<g id="node7" class="node">
<title>AppModule</title>
<polygon fill="#8dd3c7" stroke="#000000" points="449.6571,-187 446.6571,-191 425.6571,-191 422.6571,-187 366.3429,-187 366.3429,-151 449.6571,-151 449.6571,-187"/>
<text text-anchor="middle" x="408" y="-164.8" font-family="Times,serif" font-size="14.00" fill="#000000">AppModule</text>
</g>
<!-- ChannelsModule&#45;&gt;AppModule -->
<g id="edge1" class="edge">
<title>ChannelsModule&#45;&gt;AppModule</title>
<path fill="none" stroke="#000000" d="M752,-122.2843C752,-143.3211 752,-175 752,-175 752,-175 459.8372,-175 459.8372,-175"/>
<polygon fill="#000000" stroke="#000000" points="459.8373,-171.5001 449.8372,-175 459.8372,-178.5001 459.8373,-171.5001"/>
</g>
<!-- ContactsModule -->
<g id="node2" class="node">
<title>ContactsModule</title>
<polygon fill="#8dd3c7" stroke="#000000" points="678.0424,-122 675.0424,-126 654.0424,-126 651.0424,-122 569.9576,-122 569.9576,-86 678.0424,-86 678.0424,-122"/>
<text text-anchor="middle" x="624" y="-99.8" font-family="Times,serif" font-size="14.00" fill="#000000">ContactsModule</text>
</g>
<!-- ContactsModule&#45;&gt;AppModule -->
<g id="edge2" class="edge">
<title>ContactsModule&#45;&gt;AppModule</title>
<path fill="none" stroke="#000000" d="M624,-122.0225C624,-139.3734 624,-163 624,-163 624,-163 459.9031,-163 459.9031,-163"/>
<polygon fill="#000000" stroke="#000000" points="459.9031,-159.5001 449.9031,-163 459.9031,-166.5001 459.9031,-159.5001"/>
</g>
<!-- DevelopmentModule -->
<g id="node3" class="node">
<title>DevelopmentModule</title>
<polygon fill="#8dd3c7" stroke="#000000" points="551.472,-122 548.472,-126 527.472,-126 524.472,-122 416.528,-122 416.528,-86 551.472,-86 551.472,-122"/>
<text text-anchor="middle" x="484" y="-99.8" font-family="Times,serif" font-size="14.00" fill="#000000">DevelopmentModule</text>
</g>
<!-- DevelopmentModule&#45;&gt;AppModule -->
<g id="edge3" class="edge">
<title>DevelopmentModule&#45;&gt;AppModule</title>
<path fill="none" stroke="#000000" d="M433.1711,-122.1061C433.1711,-122.1061 433.1711,-140.991 433.1711,-140.991"/>
<polygon fill="#000000" stroke="#000000" points="429.6712,-140.9909 433.1711,-150.991 436.6712,-140.991 429.6712,-140.9909"/>
</g>
<!-- KeyManagerModule -->
<g id="node4" class="node">
<title>KeyManagerModule</title>
<polygon fill="#8dd3c7" stroke="#000000" points="398.1205,-122 395.1205,-126 374.1205,-126 371.1205,-122 265.8795,-122 265.8795,-86 398.1205,-86 398.1205,-122"/>
<text text-anchor="middle" x="332" y="-99.8" font-family="Times,serif" font-size="14.00" fill="#000000">KeyManagerModule</text>
</g>
<!-- KeyManagerModule&#45;&gt;AppModule -->
<g id="edge4" class="edge">
<title>KeyManagerModule&#45;&gt;AppModule</title>
<path fill="none" stroke="#000000" d="M382.2409,-122.1061C382.2409,-122.1061 382.2409,-140.991 382.2409,-140.991"/>
<polygon fill="#000000" stroke="#000000" points="378.741,-140.9909 382.2409,-150.991 385.741,-140.991 378.741,-140.9909"/>
</g>
<!-- MessagesModule -->
<g id="node5" class="node">
<title>MessagesModule</title>
<polygon fill="#8dd3c7" stroke="#000000" points="247.972,-122 244.972,-126 223.972,-126 220.972,-122 134.028,-122 134.028,-86 247.972,-86 247.972,-122"/>
<text text-anchor="middle" x="191" y="-99.8" font-family="Times,serif" font-size="14.00" fill="#000000">MessagesModule</text>
</g>
<!-- MessagesModule&#45;&gt;AppModule -->
<g id="edge5" class="edge">
<title>MessagesModule&#45;&gt;AppModule</title>
<path fill="none" stroke="#000000" d="M191,-122.0225C191,-139.3734 191,-163 191,-163 191,-163 356.1602,-163 356.1602,-163"/>
<polygon fill="#000000" stroke="#000000" points="356.1603,-166.5001 366.1602,-163 356.1602,-159.5001 356.1603,-166.5001"/>
</g>
<!-- UsersModule -->
<g id="node6" class="node">
<title>UsersModule</title>
<polygon fill="#8dd3c7" stroke="#000000" points="115.9218,-122 112.9218,-126 91.9218,-126 88.9218,-122 24.0782,-122 24.0782,-86 115.9218,-86 115.9218,-122"/>
<text text-anchor="middle" x="70" y="-99.8" font-family="Times,serif" font-size="14.00" fill="#000000">UsersModule</text>
</g>
<!-- UsersModule&#45;&gt;AppModule -->
<g id="edge6" class="edge">
<title>UsersModule&#45;&gt;AppModule</title>
<path fill="none" stroke="#000000" d="M70,-122.2843C70,-143.3211 70,-175 70,-175 70,-175 356.2156,-175 356.2156,-175"/>
<polygon fill="#000000" stroke="#000000" points="356.2156,-178.5001 366.2156,-175 356.2155,-171.5001 356.2156,-178.5001"/>
</g>
</g>
</svg>
