<?xml version="1.0" encoding="UTF-8" standalone="no"?>
<!DOCTYPE svg PUBLIC "-//W3C//DTD SVG 1.1//EN"
 "http://www.w3.org/Graphics/SVG/1.1/DTD/svg11.dtd">
<!-- Generated by graphviz version 2.40.1 (20161225.0304)
 -->
<!-- Title: dependencies Pages: 1 -->
<svg width="504pt" height="284pt"
 viewBox="0.00 0.00 504.00 284.00" xmlns="http://www.w3.org/2000/svg" xmlns:xlink="http://www.w3.org/1999/xlink">
<g id="graph0" class="graph" transform="scale(1 1) rotate(0) translate(4 280)">
<title>dependencies</title>
<polygon fill="#ffffff" stroke="transparent" points="-4,4 -4,-280 500,-280 500,4 -4,4"/>
<text text-anchor="start" x="227.0091" y="-42.4" font-family="sans-serif" font-weight="bold" font-size="14.00" fill="#000000">Legend</text>
<polygon fill="#ffffb3" stroke="transparent" points="14,-10 14,-30 34,-30 34,-10 14,-10"/>
<text text-anchor="start" x="37.629" y="-15.4" font-family="sans-serif" font-size="14.00" fill="#000000"> &#160;Declarations</text>
<polygon fill="#8dd3c7" stroke="transparent" points="127,-10 127,-30 147,-30 147,-10 127,-10"/>
<text text-anchor="start" x="150.7251" y="-15.4" font-family="sans-serif" font-size="14.00" fill="#000000"> &#160;Module</text>
<polygon fill="#80b1d3" stroke="transparent" points="213,-10 213,-30 233,-30 233,-10 213,-10"/>
<text text-anchor="start" x="236.7812" y="-15.4" font-family="sans-serif" font-size="14.00" fill="#000000"> &#160;Bootstrap</text>
<polygon fill="#fdb462" stroke="transparent" points="310,-10 310,-30 330,-30 330,-10 310,-10"/>
<text text-anchor="start" x="333.6732" y="-15.4" font-family="sans-serif" font-size="14.00" fill="#000000"> &#160;Providers</text>
<polygon fill="#fb8072" stroke="transparent" points="406,-10 406,-30 426,-30 426,-10 406,-10"/>
<text text-anchor="start" x="429.7258" y="-15.4" font-family="sans-serif" font-size="14.00" fill="#000000"> &#160;Exports</text>
<g id="clust1" class="cluster">
<title>cluster_Web3Module</title>
<polygon fill="none" stroke="#000000" stroke-dasharray="1,5" points="108,-70 108,-268 388,-268 388,-70 108,-70"/>
</g>
<g id="clust3" class="cluster">
<title>cluster_Web3Module_imports</title>
<polygon fill="none" stroke="#000000" points="266,-78 266,-130 380,-130 380,-78 266,-78"/>
</g>
<g id="clust4" class="cluster">
<title>cluster_Web3Module_exports</title>
<polygon fill="none" stroke="#000000" points="200,-208 200,-260 310,-260 310,-208 200,-208"/>
</g>
<g id="clust6" class="cluster">
<title>cluster_Web3Module_providers</title>
<polygon fill="none" stroke="#000000" points="116,-78 116,-130 258,-130 258,-78 116,-78"/>
</g>
<!-- EventsModule -->
<g id="node1" class="node">
<title>EventsModule</title>
<polygon fill="#8dd3c7" stroke="#000000" points="371.6528,-122 368.6528,-126 347.6528,-126 344.6528,-122 274.3472,-122 274.3472,-86 371.6528,-86 371.6528,-122"/>
<text text-anchor="middle" x="323" y="-99.8" font-family="Times,serif" font-size="14.00" fill="#000000">EventsModule</text>
</g>
<!-- Web3Module -->
<g id="node2" class="node">
<title>Web3Module</title>
<polygon fill="#8dd3c7" stroke="#000000" points="301.479,-187 298.479,-191 277.479,-191 274.479,-187 208.521,-187 208.521,-151 301.479,-151 301.479,-187"/>
<text text-anchor="middle" x="255" y="-164.8" font-family="Times,serif" font-size="14.00" fill="#000000">Web3Module</text>
</g>
<!-- EventsModule&#45;&gt;Web3Module -->
<g id="edge1" class="edge">
<title>EventsModule&#45;&gt;Web3Module</title>
<path fill="none" stroke="#000000" d="M287.8317,-122.1061C287.8317,-122.1061 287.8317,-140.991 287.8317,-140.991"/>
<polygon fill="#000000" stroke="#000000" points="284.3318,-140.9909 287.8317,-150.991 291.3318,-140.991 284.3318,-140.9909"/>
</g>
<!-- Web3Service  -->
<g id="node3" class="node">
<title>Web3Service </title>
<polygon fill="#fb8072" stroke="#000000" points="302.4068,-252 207.5932,-252 207.5932,-216 302.4068,-216 302.4068,-252"/>
<text text-anchor="middle" x="255" y="-229.8" font-family="Times,serif" font-size="14.00" fill="#000000">Web3Service </text>
</g>
<!-- Web3Module&#45;&gt;Web3Service  -->
<g id="edge2" class="edge">
<title>Web3Module&#45;&gt;Web3Service </title>
<path fill="none" stroke="#000000" stroke-dasharray="5,2" d="M255,-187.1061C255,-187.1061 255,-205.991 255,-205.991"/>
<polygon fill="#000000" stroke="#000000" points="251.5001,-205.9909 255,-215.991 258.5001,-205.991 251.5001,-205.9909"/>
</g>
<!-- Web3Service -->
<g id="node4" class="node">
<title>Web3Service</title>
<ellipse fill="#fdb462" stroke="#000000" cx="187" cy="-104" rx="63.1015" ry="18"/>
<text text-anchor="middle" x="187" y="-99.8" font-family="Times,serif" font-size="14.00" fill="#000000">Web3Service</text>
</g>
<!-- Web3Service&#45;&gt;Web3Module -->
<g id="edge3" class="edge">
<title>Web3Service&#45;&gt;Web3Module</title>
<path fill="none" stroke="#000000" d="M229.2806,-117.468C229.2806,-117.468 229.2806,-140.8642 229.2806,-140.8642"/>
<polygon fill="#000000" stroke="#000000" points="225.7807,-140.8641 229.2806,-150.8642 232.7807,-140.8642 225.7807,-140.8641"/>
</g>
</g>
</svg>
