<?xml version="1.0" encoding="UTF-8" standalone="no"?>
<!DOCTYPE svg PUBLIC "-//W3C//DTD SVG 1.1//EN"
 "http://www.w3.org/Graphics/SVG/1.1/DTD/svg11.dtd">
<!-- Generated by graphviz version 2.40.1 (20161225.0304)
 -->
<!-- Title: dependencies Pages: 1 -->
<svg width="580pt" height="211pt"
 viewBox="0.00 0.00 580.00 211.00" xmlns="http://www.w3.org/2000/svg" xmlns:xlink="http://www.w3.org/1999/xlink">
<g id="graph0" class="graph" transform="scale(1 1) rotate(0) translate(4 207)">
<title>dependencies</title>
<polygon fill="#ffffff" stroke="transparent" points="-4,4 -4,-207 576,-207 576,4 -4,4"/>
<text text-anchor="start" x="265.0091" y="-42.4" font-family="sans-serif" font-weight="bold" font-size="14.00" fill="#000000">Legend</text>
<polygon fill="#ffffb3" stroke="transparent" points="52,-10 52,-30 72,-30 72,-10 52,-10"/>
<text text-anchor="start" x="75.629" y="-15.4" font-family="sans-serif" font-size="14.00" fill="#000000"> &#160;Declarations</text>
<polygon fill="#8dd3c7" stroke="transparent" points="165,-10 165,-30 185,-30 185,-10 165,-10"/>
<text text-anchor="start" x="188.7251" y="-15.4" font-family="sans-serif" font-size="14.00" fill="#000000"> &#160;Module</text>
<polygon fill="#80b1d3" stroke="transparent" points="251,-10 251,-30 271,-30 271,-10 251,-10"/>
<text text-anchor="start" x="274.7812" y="-15.4" font-family="sans-serif" font-size="14.00" fill="#000000"> &#160;Bootstrap</text>
<polygon fill="#fdb462" stroke="transparent" points="348,-10 348,-30 368,-30 368,-10 348,-10"/>
<text text-anchor="start" x="371.6732" y="-15.4" font-family="sans-serif" font-size="14.00" fill="#000000"> &#160;Providers</text>
<polygon fill="#fb8072" stroke="transparent" points="444,-10 444,-30 464,-30 464,-10 444,-10"/>
<text text-anchor="start" x="467.7258" y="-15.4" font-family="sans-serif" font-size="14.00" fill="#000000"> &#160;Exports</text>
<g id="clust1" class="cluster">
<title>cluster_DevelopmentModule</title>
<polygon fill="none" stroke="#000000" stroke-dasharray="1,5" points="8,-70 8,-195 564,-195 564,-70 8,-70"/>
</g>
<g id="clust3" class="cluster">
<title>cluster_DevelopmentModule_imports</title>
<polygon fill="none" stroke="#000000" points="16,-78 16,-130 556,-130 556,-78 16,-78"/>
</g>
<!-- ContactsModule -->
<g id="node1" class="node">
<title>ContactsModule</title>
<polygon fill="#8dd3c7" stroke="#000000" points="548.0424,-122 545.0424,-126 524.0424,-126 521.0424,-122 439.9576,-122 439.9576,-86 548.0424,-86 548.0424,-122"/>
<text text-anchor="middle" x="494" y="-99.8" font-family="Times,serif" font-size="14.00" fill="#000000">ContactsModule</text>
</g>
<!-- DevelopmentModule -->
<g id="node5" class="node">
<title>DevelopmentModule</title>
<polygon fill="#8dd3c7" stroke="#000000" points="343.472,-187 340.472,-191 319.472,-191 316.472,-187 208.528,-187 208.528,-151 343.472,-151 343.472,-187"/>
<text text-anchor="middle" x="276" y="-164.8" font-family="Times,serif" font-size="14.00" fill="#000000">DevelopmentModule</text>
</g>
<!-- ContactsModule&#45;&gt;DevelopmentModule -->
<g id="edge1" class="edge">
<title>ContactsModule&#45;&gt;DevelopmentModule</title>
<path fill="none" stroke="#000000" d="M494,-122.1061C494,-141.3391 494,-169 494,-169 494,-169 353.4836,-169 353.4836,-169"/>
<polygon fill="#000000" stroke="#000000" points="353.4837,-165.5001 343.4836,-169 353.4836,-172.5001 353.4837,-165.5001"/>
</g>
<!-- CryptographyModule -->
<g id="node2" class="node">
<title>CryptographyModule</title>
<polygon fill="#8dd3c7" stroke="#000000" points="421.8132,-122 418.8132,-126 397.8132,-126 394.8132,-122 284.1868,-122 284.1868,-86 421.8132,-86 421.8132,-122"/>
<text text-anchor="middle" x="353" y="-99.8" font-family="Times,serif" font-size="14.00" fill="#000000">CryptographyModule</text>
</g>
<!-- CryptographyModule&#45;&gt;DevelopmentModule -->
<g id="edge2" class="edge">
<title>CryptographyModule&#45;&gt;DevelopmentModule</title>
<path fill="none" stroke="#000000" d="M313.9148,-122.1061C313.9148,-122.1061 313.9148,-140.991 313.9148,-140.991"/>
<polygon fill="#000000" stroke="#000000" points="310.4149,-140.9909 313.9148,-150.991 317.4149,-140.991 310.4149,-140.9909"/>
</g>
<!-- KeyManagerModule -->
<g id="node3" class="node">
<title>KeyManagerModule</title>
<polygon fill="#8dd3c7" stroke="#000000" points="266.1205,-122 263.1205,-126 242.1205,-126 239.1205,-122 133.8795,-122 133.8795,-86 266.1205,-86 266.1205,-122"/>
<text text-anchor="middle" x="200" y="-99.8" font-family="Times,serif" font-size="14.00" fill="#000000">KeyManagerModule</text>
</g>
<!-- KeyManagerModule&#45;&gt;DevelopmentModule -->
<g id="edge3" class="edge">
<title>KeyManagerModule&#45;&gt;DevelopmentModule</title>
<path fill="none" stroke="#000000" d="M237.412,-122.1061C237.412,-122.1061 237.412,-140.991 237.412,-140.991"/>
<polygon fill="#000000" stroke="#000000" points="233.9121,-140.9909 237.412,-150.991 240.9121,-140.991 233.9121,-140.9909"/>
</g>
<!-- UsersModule -->
<g id="node4" class="node">
<title>UsersModule</title>
<polygon fill="#8dd3c7" stroke="#000000" points="115.9218,-122 112.9218,-126 91.9218,-126 88.9218,-122 24.0782,-122 24.0782,-86 115.9218,-86 115.9218,-122"/>
<text text-anchor="middle" x="70" y="-99.8" font-family="Times,serif" font-size="14.00" fill="#000000">UsersModule</text>
</g>
<!-- UsersModule&#45;&gt;DevelopmentModule -->
<g id="edge4" class="edge">
<title>UsersModule&#45;&gt;DevelopmentModule</title>
<path fill="none" stroke="#000000" d="M70,-122.1061C70,-141.3391 70,-169 70,-169 70,-169 198.2626,-169 198.2626,-169"/>
<polygon fill="#000000" stroke="#000000" points="198.2626,-172.5001 208.2626,-169 198.2625,-165.5001 198.2626,-172.5001"/>
</g>
</g>
</svg>
