<?xml version="1.0" encoding="UTF-8" standalone="no"?>
<!DOCTYPE svg PUBLIC "-//W3C//DTD SVG 1.1//EN"
 "http://www.w3.org/Graphics/SVG/1.1/DTD/svg11.dtd">
<!-- Generated by graphviz version 2.40.1 (20161225.0304)
 -->
<!-- Title: dependencies Pages: 1 -->
<svg width="504pt" height="211pt"
 viewBox="0.00 0.00 504.00 211.00" xmlns="http://www.w3.org/2000/svg" xmlns:xlink="http://www.w3.org/1999/xlink">
<g id="graph0" class="graph" transform="scale(1 1) rotate(0) translate(4 207)">
<title>dependencies</title>
<polygon fill="#ffffff" stroke="transparent" points="-4,4 -4,-207 500,-207 500,4 -4,4"/>
<text text-anchor="start" x="227.0091" y="-42.4" font-family="sans-serif" font-weight="bold" font-size="14.00" fill="#000000">Legend</text>
<polygon fill="#ffffb3" stroke="transparent" points="14,-10 14,-30 34,-30 34,-10 14,-10"/>
<text text-anchor="start" x="37.629" y="-15.4" font-family="sans-serif" font-size="14.00" fill="#000000"> &#160;Declarations</text>
<polygon fill="#8dd3c7" stroke="transparent" points="127,-10 127,-30 147,-30 147,-10 127,-10"/>
<text text-anchor="start" x="150.7251" y="-15.4" font-family="sans-serif" font-size="14.00" fill="#000000"> &#160;Module</text>
<polygon fill="#80b1d3" stroke="transparent" points="213,-10 213,-30 233,-30 233,-10 213,-10"/>
<text text-anchor="start" x="236.7812" y="-15.4" font-family="sans-serif" font-size="14.00" fill="#000000"> &#160;Bootstrap</text>
<polygon fill="#fdb462" stroke="transparent" points="310,-10 310,-30 330,-30 330,-10 310,-10"/>
<text text-anchor="start" x="333.6732" y="-15.4" font-family="sans-serif" font-size="14.00" fill="#000000"> &#160;Providers</text>
<polygon fill="#fb8072" stroke="transparent" points="406,-10 406,-30 426,-30 426,-10 406,-10"/>
<text text-anchor="start" x="429.7258" y="-15.4" font-family="sans-serif" font-size="14.00" fill="#000000"> &#160;Exports</text>
<g id="clust1" class="cluster">
<title>cluster_AppModule</title>
<polygon fill="none" stroke="#000000" stroke-dasharray="1,5" points="120,-70 120,-195 376,-195 376,-70 120,-70"/>
</g>
<g id="clust3" class="cluster">
<title>cluster_AppModule_imports</title>
<polygon fill="none" stroke="#000000" points="128,-78 128,-130 368,-130 368,-78 128,-78"/>
</g>
<!-- MessagesModule -->
<g id="node1" class="node">
<title>MessagesModule</title>
<polygon fill="#8dd3c7" stroke="#000000" points="359.972,-122 356.972,-126 335.972,-126 332.972,-122 246.028,-122 246.028,-86 359.972,-86 359.972,-122"/>
<text text-anchor="middle" x="303" y="-99.8" font-family="Times,serif" font-size="14.00" fill="#000000">MessagesModule</text>
</g>
<!-- AppModule -->
<g id="node3" class="node">
<title>AppModule</title>
<polygon fill="#8dd3c7" stroke="#000000" points="283.6571,-187 280.6571,-191 259.6571,-191 256.6571,-187 200.3429,-187 200.3429,-151 283.6571,-151 283.6571,-187"/>
<text text-anchor="middle" x="242" y="-164.8" font-family="Times,serif" font-size="14.00" fill="#000000">AppModule</text>
</g>
<!-- MessagesModule&#45;&gt;AppModule -->
<g id="edge1" class="edge">
<title>MessagesModule&#45;&gt;AppModule</title>
<path fill="none" stroke="#000000" d="M264.9211,-122.1061C264.9211,-122.1061 264.9211,-140.991 264.9211,-140.991"/>
<polygon fill="#000000" stroke="#000000" points="261.4212,-140.9909 264.9211,-150.991 268.4212,-140.991 261.4212,-140.9909"/>
</g>
<!-- UsersModule -->
<g id="node2" class="node">
<title>UsersModule</title>
<polygon fill="#8dd3c7" stroke="#000000" points="227.9218,-122 224.9218,-126 203.9218,-126 200.9218,-122 136.0782,-122 136.0782,-86 227.9218,-86 227.9218,-122"/>
<text text-anchor="middle" x="182" y="-99.8" font-family="Times,serif" font-size="14.00" fill="#000000">UsersModule</text>
</g>
<!-- UsersModule&#45;&gt;AppModule -->
<g id="edge2" class="edge">
<title>UsersModule&#45;&gt;AppModule</title>
<path fill="none" stroke="#000000" d="M213.9411,-122.1061C213.9411,-122.1061 213.9411,-140.991 213.9411,-140.991"/>
<polygon fill="#000000" stroke="#000000" points="210.4412,-140.9909 213.9411,-150.991 217.4412,-140.991 210.4412,-140.9909"/>
</g>
</g>
</svg>
