<?xml version="1.0" encoding="UTF-8" standalone="no"?>
<!DOCTYPE svg PUBLIC "-//W3C//DTD SVG 1.1//EN"
 "http://www.w3.org/Graphics/SVG/1.1/DTD/svg11.dtd">
<!-- Generated by graphviz version 2.40.1 (20161225.0304)
 -->
<!-- Title: dependencies Pages: 1 -->
<svg width="504pt" height="211pt"
 viewBox="0.00 0.00 504.00 211.00" xmlns="http://www.w3.org/2000/svg" xmlns:xlink="http://www.w3.org/1999/xlink">
<g id="graph0" class="graph" transform="scale(1 1) rotate(0) translate(4 207)">
<title>dependencies</title>
<polygon fill="#ffffff" stroke="transparent" points="-4,4 -4,-207 500,-207 500,4 -4,4"/>
<text text-anchor="start" x="227.0091" y="-42.4" font-family="sans-serif" font-weight="bold" font-size="14.00" fill="#000000">Legend</text>
<polygon fill="#ffffb3" stroke="transparent" points="14,-10 14,-30 34,-30 34,-10 14,-10"/>
<text text-anchor="start" x="37.629" y="-15.4" font-family="sans-serif" font-size="14.00" fill="#000000"> &#160;Declarations</text>
<polygon fill="#8dd3c7" stroke="transparent" points="127,-10 127,-30 147,-30 147,-10 127,-10"/>
<text text-anchor="start" x="150.7251" y="-15.4" font-family="sans-serif" font-size="14.00" fill="#000000"> &#160;Module</text>
<polygon fill="#80b1d3" stroke="transparent" points="213,-10 213,-30 233,-30 233,-10 213,-10"/>
<text text-anchor="start" x="236.7812" y="-15.4" font-family="sans-serif" font-size="14.00" fill="#000000"> &#160;Bootstrap</text>
<polygon fill="#fdb462" stroke="transparent" points="310,-10 310,-30 330,-30 330,-10 310,-10"/>
<text text-anchor="start" x="333.6732" y="-15.4" font-family="sans-serif" font-size="14.00" fill="#000000"> &#160;Providers</text>
<polygon fill="#fb8072" stroke="transparent" points="406,-10 406,-30 426,-30 426,-10 406,-10"/>
<text text-anchor="start" x="429.7258" y="-15.4" font-family="sans-serif" font-size="14.00" fill="#000000"> &#160;Exports</text>
<g id="clust1" class="cluster">
<title>cluster_MessagesModule</title>
<polygon fill="none" stroke="#000000" stroke-dasharray="1,5" points="46,-70 46,-195 450,-195 450,-70 46,-70"/>
</g>
<g id="clust3" class="cluster">
<title>cluster_MessagesModule_imports</title>
<polygon fill="none" stroke="#000000" points="234,-78 234,-130 442,-130 442,-78 234,-78"/>
</g>
<g id="clust6" class="cluster">
<title>cluster_MessagesModule_providers</title>
<polygon fill="none" stroke="#000000" points="54,-78 54,-130 226,-130 226,-78 54,-78"/>
</g>
<!-- IpfsModule -->
<g id="node1" class="node">
<title>IpfsModule</title>
<polygon fill="#8dd3c7" stroke="#000000" points="433.8162,-122 430.8162,-126 409.8162,-126 406.8162,-122 352.1838,-122 352.1838,-86 433.8162,-86 433.8162,-122"/>
<text text-anchor="middle" x="393" y="-99.8" font-family="Times,serif" font-size="14.00" fill="#000000">IpfsModule</text>
</g>
<!-- MessagesModule -->
<g id="node3" class="node">
<title>MessagesModule</title>
<polygon fill="#8dd3c7" stroke="#000000" points="344.972,-187 341.972,-191 320.972,-191 317.972,-187 231.028,-187 231.028,-151 344.972,-151 344.972,-187"/>
<text text-anchor="middle" x="288" y="-164.8" font-family="Times,serif" font-size="14.00" fill="#000000">MessagesModule</text>
</g>
<!-- IpfsModule&#45;&gt;MessagesModule -->
<g id="edge1" class="edge">
<title>IpfsModule&#45;&gt;MessagesModule</title>
<path fill="none" stroke="#000000" d="M352.0911,-104C344.9391,-104 339.7378,-104 339.7378,-104 339.7378,-104 339.7378,-140.8939 339.7378,-140.8939"/>
<polygon fill="#000000" stroke="#000000" points="336.2378,-140.8938 339.7378,-150.8939 343.2378,-140.8939 336.2378,-140.8938"/>
</g>
<!-- Web3Module -->
<g id="node2" class="node">
<title>Web3Module</title>
<polygon fill="#8dd3c7" stroke="#000000" points="334.479,-122 331.479,-126 310.479,-126 307.479,-122 241.521,-122 241.521,-86 334.479,-86 334.479,-122"/>
<text text-anchor="middle" x="288" y="-99.8" font-family="Times,serif" font-size="14.00" fill="#000000">Web3Module</text>
</g>
<!-- Web3Module&#45;&gt;MessagesModule -->
<g id="edge2" class="edge">
<title>Web3Module&#45;&gt;MessagesModule</title>
<path fill="none" stroke="#000000" d="M288,-122.1061C288,-122.1061 288,-140.991 288,-140.991"/>
<polygon fill="#000000" stroke="#000000" points="284.5001,-140.9909 288,-150.991 291.5001,-140.991 284.5001,-140.9909"/>
</g>
<!-- MessagesService -->
<g id="node4" class="node">
<title>MessagesService</title>
<ellipse fill="#fdb462" stroke="#000000" cx="140" cy="-104" rx="77.5627" ry="18"/>
<text text-anchor="middle" x="140" y="-99.8" font-family="Times,serif" font-size="14.00" fill="#000000">MessagesService</text>
</g>
<!-- MessagesService&#45;&gt;MessagesModule -->
<g id="edge3" class="edge">
<title>MessagesService&#45;&gt;MessagesModule</title>
<path fill="none" stroke="#000000" d="M217.7019,-104C228.6478,-104 236.2623,-104 236.2623,-104 236.2623,-104 236.2623,-140.8939 236.2623,-140.8939"/>
<polygon fill="#000000" stroke="#000000" points="232.7623,-140.8938 236.2623,-150.8939 239.7623,-140.8939 232.7623,-140.8938"/>
</g>
</g>
</svg>
