<?xml version="1.0" encoding="UTF-8" standalone="no"?>
<!DOCTYPE svg PUBLIC "-//W3C//DTD SVG 1.1//EN"
 "http://www.w3.org/Graphics/SVG/1.1/DTD/svg11.dtd">
<!-- Generated by graphviz version 2.40.1 (20161225.0304)
 -->
<!-- Title: dependencies Pages: 1 -->
<svg width="993pt" height="355pt"
 viewBox="0.00 0.00 993.00 355.00" xmlns="http://www.w3.org/2000/svg" xmlns:xlink="http://www.w3.org/1999/xlink">
<g id="graph0" class="graph" transform="scale(1 1) rotate(0) translate(4 351)">
<title>dependencies</title>
<polygon fill="#ffffff" stroke="transparent" points="-4,4 -4,-351 989,-351 989,4 -4,4"/>
<text text-anchor="start" x="471.5091" y="-42.4" font-family="sans-serif" font-weight="bold" font-size="14.00" fill="#000000">Legend</text>
<polygon fill="#ffffb3" stroke="transparent" points="258.5,-10 258.5,-30 278.5,-30 278.5,-10 258.5,-10"/>
<text text-anchor="start" x="282.129" y="-15.4" font-family="sans-serif" font-size="14.00" fill="#000000"> &#160;Declarations</text>
<polygon fill="#8dd3c7" stroke="transparent" points="371.5,-10 371.5,-30 391.5,-30 391.5,-10 371.5,-10"/>
<text text-anchor="start" x="395.2251" y="-15.4" font-family="sans-serif" font-size="14.00" fill="#000000"> &#160;Module</text>
<polygon fill="#80b1d3" stroke="transparent" points="457.5,-10 457.5,-30 477.5,-30 477.5,-10 457.5,-10"/>
<text text-anchor="start" x="481.2812" y="-15.4" font-family="sans-serif" font-size="14.00" fill="#000000"> &#160;Bootstrap</text>
<polygon fill="#fdb462" stroke="transparent" points="554.5,-10 554.5,-30 574.5,-30 574.5,-10 554.5,-10"/>
<text text-anchor="start" x="578.1732" y="-15.4" font-family="sans-serif" font-size="14.00" fill="#000000"> &#160;Providers</text>
<polygon fill="#fb8072" stroke="transparent" points="650.5,-10 650.5,-30 670.5,-30 670.5,-10 650.5,-10"/>
<text text-anchor="start" x="674.2258" y="-15.4" font-family="sans-serif" font-size="14.00" fill="#000000"> &#160;Exports</text>
<g id="clust1" class="cluster">
<title>cluster_AppModule</title>
<polygon fill="none" stroke="#000000" stroke-dasharray="1,5" points="186,-214 186,-339 442,-339 442,-214 186,-214"/>
</g>
<g id="clust3" class="cluster">
<title>cluster_AppModule_imports</title>
<polygon fill="none" stroke="#000000" points="194,-222 194,-274 434,-274 434,-222 194,-222"/>
</g>
<g id="clust7" class="cluster">
<title>cluster_CryptographyModule</title>
<polygon fill="none" stroke="#000000" stroke-dasharray="1,5" points="757,-70 757,-282 977,-282 977,-70 757,-70"/>
</g>
<g id="clust10" class="cluster">
<title>cluster_CryptographyModule_exports</title>
<polygon fill="none" stroke="#000000" points="789,-222 789,-274 945,-274 945,-222 789,-222"/>
</g>
<g id="clust12" class="cluster">
<title>cluster_CryptographyModule_providers</title>
<polygon fill="none" stroke="#000000" points="765,-78 765,-130 969,-130 969,-78 765,-78"/>
</g>
<g id="clust13" class="cluster">
<title>cluster_IpfsModule</title>
<polygon fill="none" stroke="#000000" stroke-dasharray="1,5" points="8,-70 8,-282 150,-282 150,-70 8,-70"/>
</g>
<g id="clust16" class="cluster">
<title>cluster_IpfsModule_exports</title>
<polygon fill="none" stroke="#000000" points="35,-222 35,-274 135,-274 135,-222 35,-222"/>
</g>
<g id="clust18" class="cluster">
<title>cluster_IpfsModule_providers</title>
<polygon fill="none" stroke="#000000" points="16,-78 16,-130 142,-130 142,-78 16,-78"/>
</g>
<g id="clust19" class="cluster">
<title>cluster_MessagesModule</title>
<polygon fill="none" stroke="#000000" stroke-dasharray="1,5" points="322,-138 322,-206 626,-206 626,-138 322,-138"/>
</g>
<g id="clust21" class="cluster">
<title>cluster_MessagesModule_imports</title>
<polygon fill="none" stroke="#000000" points="510,-146 510,-198 618,-198 618,-146 510,-146"/>
</g>
<g id="clust24" class="cluster">
<title>cluster_MessagesModule_providers</title>
<polygon fill="none" stroke="#000000" points="330,-146 330,-198 502,-198 502,-146 330,-146"/>
</g>
<g id="clust25" class="cluster">
<title>cluster_UsersModule</title>
<polygon fill="none" stroke="#000000" stroke-dasharray="1,5" points="158,-138 158,-206 314,-206 314,-138 158,-138"/>
</g>
<g id="clust30" class="cluster">
<title>cluster_UsersModule_providers</title>
<polygon fill="none" stroke="#000000" points="166,-146 166,-198 306,-198 306,-146 166,-146"/>
</g>
<g id="clust31" class="cluster">
<title>cluster_Web3Module</title>
<polygon fill="none" stroke="#000000" stroke-dasharray="1,5" points="473,-214 473,-282 749,-282 749,-214 473,-214"/>
</g>
<g id="clust34" class="cluster">
<title>cluster_Web3Module_exports</title>
<polygon fill="none" stroke="#000000" points="631,-222 631,-274 741,-274 741,-222 631,-222"/>
</g>
<g id="clust36" class="cluster">
<title>cluster_Web3Module_providers</title>
<polygon fill="none" stroke="#000000" points="481,-222 481,-274 623,-274 623,-222 481,-222"/>
</g>
<!-- MessagesModule -->
<g id="node1" class="node">
<title>MessagesModule</title>
<polygon fill="#8dd3c7" stroke="#000000" points="425.972,-266 422.972,-270 401.972,-270 398.972,-266 312.028,-266 312.028,-230 425.972,-230 425.972,-266"/>
<text text-anchor="middle" x="369" y="-243.8" font-family="Times,serif" font-size="14.00" fill="#000000">MessagesModule</text>
</g>
<!-- AppModule -->
<g id="node3" class="node">
<title>AppModule</title>
<polygon fill="#8dd3c7" stroke="#000000" points="349.6571,-331 346.6571,-335 325.6571,-335 322.6571,-331 266.3429,-331 266.3429,-295 349.6571,-295 349.6571,-331"/>
<text text-anchor="middle" x="308" y="-308.8" font-family="Times,serif" font-size="14.00" fill="#000000">AppModule</text>
</g>
<!-- MessagesModule&#45;&gt;AppModule -->
<g id="edge1" class="edge">
<title>MessagesModule&#45;&gt;AppModule</title>
<path fill="none" stroke="#000000" d="M330.9211,-266.1061C330.9211,-266.1061 330.9211,-284.991 330.9211,-284.991"/>
<polygon fill="#000000" stroke="#000000" points="327.4212,-284.9909 330.9211,-294.991 334.4212,-284.991 327.4212,-284.9909"/>
</g>
<!-- UsersModule -->
<g id="node2" class="node">
<title>UsersModule</title>
<polygon fill="#8dd3c7" stroke="#000000" points="293.9218,-266 290.9218,-270 269.9218,-270 266.9218,-266 202.0782,-266 202.0782,-230 293.9218,-230 293.9218,-266"/>
<text text-anchor="middle" x="248" y="-243.8" font-family="Times,serif" font-size="14.00" fill="#000000">UsersModule</text>
</g>
<!-- UsersModule&#45;&gt;AppModule -->
<g id="edge2" class="edge">
<title>UsersModule&#45;&gt;AppModule</title>
<path fill="none" stroke="#000000" d="M279.9411,-266.1061C279.9411,-266.1061 279.9411,-284.991 279.9411,-284.991"/>
<polygon fill="#000000" stroke="#000000" points="276.4412,-284.9909 279.9411,-294.991 283.4412,-284.991 276.4412,-284.9909"/>
</g>
<!-- CryptographyService  -->
<g id="node4" class="node">
<title>CryptographyService </title>
<polygon fill="#fb8072" stroke="#000000" points="936.7408,-266 797.2592,-266 797.2592,-230 936.7408,-230 936.7408,-266"/>
<text text-anchor="middle" x="867" y="-243.8" font-family="Times,serif" font-size="14.00" fill="#000000">CryptographyService </text>
</g>
<!-- CryptographyModule -->
<g id="node5" class="node">
<title>CryptographyModule</title>
<polygon fill="#8dd3c7" stroke="#000000" points="935.8132,-190 932.8132,-194 911.8132,-194 908.8132,-190 798.1868,-190 798.1868,-154 935.8132,-154 935.8132,-190"/>
<text text-anchor="middle" x="867" y="-167.8" font-family="Times,serif" font-size="14.00" fill="#000000">CryptographyModule</text>
</g>
<!-- CryptographyModule&#45;&gt;CryptographyService  -->
<g id="edge3" class="edge">
<title>CryptographyModule&#45;&gt;CryptographyService </title>
<path fill="none" stroke="#000000" stroke-dasharray="5,2" d="M867,-190.0109C867,-190.0109 867,-219.855 867,-219.855"/>
<polygon fill="#000000" stroke="#000000" points="863.5001,-219.8549 867,-229.855 870.5001,-219.855 863.5001,-219.8549"/>
</g>
<!-- CryptographyService -->
<g id="node6" class="node">
<title>CryptographyService</title>
<ellipse fill="#fdb462" stroke="#000000" cx="867" cy="-104" rx="93.763" ry="18"/>
<text text-anchor="middle" x="867" y="-99.8" font-family="Times,serif" font-size="14.00" fill="#000000">CryptographyService</text>
</g>
<!-- CryptographyService&#45;&gt;CryptographyModule -->
<g id="edge4" class="edge">
<title>CryptographyService&#45;&gt;CryptographyModule</title>
<path fill="none" stroke="#000000" d="M867,-122.2228C867,-122.2228 867,-143.7269 867,-143.7269"/>
<polygon fill="#000000" stroke="#000000" points="863.5001,-143.7269 867,-153.7269 870.5001,-143.727 863.5001,-143.7269"/>
</g>
<!-- IpfsService  -->
<g id="node7" class="node">
<title>IpfsService </title>
<polygon fill="#fb8072" stroke="#000000" points="126.7438,-266 43.2562,-266 43.2562,-230 126.7438,-230 126.7438,-266"/>
<text text-anchor="middle" x="85" y="-243.8" font-family="Times,serif" font-size="14.00" fill="#000000">IpfsService </text>
</g>
<!-- IpfsModule -->
<g id="node8" class="node">
<title>IpfsModule</title>
<polygon fill="#8dd3c7" stroke="#000000" points="125.8162,-190 122.8162,-194 101.8162,-194 98.8162,-190 44.1838,-190 44.1838,-154 125.8162,-154 125.8162,-190"/>
<text text-anchor="middle" x="85" y="-167.8" font-family="Times,serif" font-size="14.00" fill="#000000">IpfsModule</text>
</g>
<!-- IpfsModule&#45;&gt;MessagesModule -->
<g id="edge7" class="edge">
<title>IpfsModule&#45;&gt;MessagesModule</title>
<path fill="none" stroke="#000000" d="M98.5526,-190.2434C98.5526,-197.4297 98.5526,-204 98.5526,-204 98.5526,-204 325.2413,-204 325.2413,-204 325.2413,-204 325.2413,-219.8495 325.2413,-219.8495"/>
<polygon fill="#000000" stroke="#000000" points="321.7414,-219.8494 325.2413,-229.8495 328.7414,-219.8495 321.7414,-219.8494"/>
</g>
<!-- IpfsModule&#45;&gt;IpfsService  -->
<g id="edge5" class="edge">
<title>IpfsModule&#45;&gt;IpfsService </title>
<path fill="none" stroke="#000000" stroke-dasharray="5,2" d="M71.4474,-190.0109C71.4474,-190.0109 71.4474,-219.855 71.4474,-219.855"/>
<polygon fill="#000000" stroke="#000000" points="67.9475,-219.8549 71.4474,-229.855 74.9475,-219.855 67.9475,-219.8549"/>
</g>
<!-- IpfsService -->
<g id="node9" class="node">
<title>IpfsService</title>
<ellipse fill="#fdb462" stroke="#000000" cx="79" cy="-104" rx="55.0111" ry="18"/>
<text text-anchor="middle" x="79" y="-99.8" font-family="Times,serif" font-size="14.00" fill="#000000">IpfsService</text>
</g>
<!-- IpfsService&#45;&gt;IpfsModule -->
<g id="edge6" class="edge">
<title>IpfsService&#45;&gt;IpfsModule</title>
<path fill="none" stroke="#000000" d="M85,-122.2228C85,-122.2228 85,-143.7269 85,-143.7269"/>
<polygon fill="#000000" stroke="#000000" points="81.5001,-143.7269 85,-153.7269 88.5001,-143.727 81.5001,-143.7269"/>
</g>
<!-- Web3Module -->
<g id="node10" class="node">
<title>Web3Module</title>
<polygon fill="#8dd3c7" stroke="#000000" points="610.479,-190 607.479,-194 586.479,-194 583.479,-190 517.521,-190 517.521,-154 610.479,-154 610.479,-190"/>
<text text-anchor="middle" x="564" y="-167.8" font-family="Times,serif" font-size="14.00" fill="#000000">Web3Module</text>
</g>
<!-- Web3Module&#45;&gt;MessagesModule -->
<g id="edge8" class="edge">
<title>Web3Module&#45;&gt;MessagesModule</title>
<path fill="none" stroke="#000000" d="M548.5035,-190.0439C548.5035,-202.5633 548.5035,-217 548.5035,-217 548.5035,-217 396.8136,-217 396.8136,-217 396.8136,-217 396.8136,-219.9672 396.8136,-219.9672"/>
<polygon fill="#000000" stroke="#000000" points="393.3137,-219.9671 396.8136,-229.9672 400.3137,-219.9672 393.3137,-219.9671"/>
</g>
<!-- Web3Service  -->
<g id="node13" class="node">
<title>Web3Service </title>
<polygon fill="#fb8072" stroke="#000000" points="733.4068,-266 638.5932,-266 638.5932,-230 733.4068,-230 733.4068,-266"/>
<text text-anchor="middle" x="686" y="-243.8" font-family="Times,serif" font-size="14.00" fill="#000000">Web3Service </text>
</g>
<!-- Web3Module&#45;&gt;Web3Service  -->
<g id="edge11" class="edge">
<title>Web3Module&#45;&gt;Web3Service </title>
<path fill="none" stroke="#000000" stroke-dasharray="5,2" d="M610.8195,-172C645.2241,-172 686,-172 686,-172 686,-172 686,-219.9891 686,-219.9891"/>
<polygon fill="#000000" stroke="#000000" points="682.5001,-219.989 686,-229.9891 689.5001,-219.9891 682.5001,-219.989"/>
</g>
<!-- MessagesService -->
<g id="node11" class="node">
<title>MessagesService</title>
<ellipse fill="#fdb462" stroke="#000000" cx="416" cy="-172" rx="77.5627" ry="18"/>
<text text-anchor="middle" x="416" y="-167.8" font-family="Times,serif" font-size="14.00" fill="#000000">MessagesService</text>
</g>
<!-- MessagesService&#45;&gt;MessagesModule -->
<g id="edge9" class="edge">
<title>MessagesService&#45;&gt;MessagesModule</title>
<path fill="none" stroke="#000000" d="M367.6411,-186.295C367.6411,-186.295 367.6411,-219.7342 367.6411,-219.7342"/>
<polygon fill="#000000" stroke="#000000" points="364.1412,-219.7341 367.6411,-229.7342 371.1412,-219.7342 364.1412,-219.7341"/>
</g>
<!-- UsersService -->
<g id="node12" class="node">
<title>UsersService</title>
<ellipse fill="#fdb462" stroke="#000000" cx="236" cy="-172" rx="61.9519" ry="18"/>
<text text-anchor="middle" x="236" y="-167.8" font-family="Times,serif" font-size="14.00" fill="#000000">UsersService</text>
</g>
<!-- UsersService&#45;&gt;UsersModule -->
<g id="edge10" class="edge">
<title>UsersService&#45;&gt;UsersModule</title>
<path fill="none" stroke="#000000" d="M248,-190.0109C248,-190.0109 248,-219.855 248,-219.855"/>
<polygon fill="#000000" stroke="#000000" points="244.5001,-219.8549 248,-229.855 251.5001,-219.855 244.5001,-219.8549"/>
</g>
<!-- Web3Service -->
<g id="node14" class="node">
<title>Web3Service</title>
<ellipse fill="#fdb462" stroke="#000000" cx="552" cy="-248" rx="63.1015" ry="18"/>
<text text-anchor="middle" x="552" y="-243.8" font-family="Times,serif" font-size="14.00" fill="#000000">Web3Service</text>
</g>
<!-- Web3Service&#45;&gt;Web3Module -->
<g id="edge12" class="edge">
<title>Web3Service&#45;&gt;Web3Module</title>
<path fill="none" stroke="#000000" d="M579.4965,-231.5091C579.4965,-231.5091 579.4965,-200.0531 579.4965,-200.0531"/>
<polygon fill="#000000" stroke="#000000" points="582.9966,-200.0531 579.4965,-190.0531 575.9966,-200.0531 582.9966,-200.0531"/>
</g>
</g>
</svg>
